<svg width="28" height="28" viewBox="0 0 28 28" fill="none" xmlns="http://www.w3.org/2000/svg">
<g id="adobe-xd-2 1" clip-path="url(#clip0_1_157)">
<path id="Vector" d="M4.95833 0.00286865H23.0417C25.7833 0.00286865 28 2.27591 28 5.0873V22.9127C28 25.7241 25.7833 27.9971 23.0417 27.9971H4.95833C2.21667 27.9971 0 25.7241 0 22.9127V5.0873C0 2.27591 2.21667 0.00286865 4.95833 0.00286865Z" fill="#470137"/>
<g id="Group">
<path id="Vector_2" d="M14.7233 7.36034L11.2233 13.2822L14.9567 19.563C14.98 19.6108 14.9917 19.6587 14.98 19.7065C14.9683 19.7544 14.9217 19.7185 14.8517 19.7304H12.18C11.9933 19.7304 11.865 19.7185 11.7833 19.5989C11.5383 19.0964 11.2817 18.6059 11.0367 18.1034C10.7917 17.6129 10.5233 17.1105 10.2433 16.596C9.96334 16.0816 9.68334 15.5672 9.40334 15.0408H9.38001C9.13501 15.5552 8.86668 16.0697 8.59834 16.5841C8.33001 17.0985 8.06168 17.6129 7.80501 18.1154C7.53668 18.6179 7.26834 19.1323 7.00001 19.6228C6.95334 19.7424 6.86001 19.7544 6.73168 19.7544H4.16501C4.11834 19.7544 4.08334 19.7783 4.08334 19.7185C4.07168 19.6706 4.08334 19.6228 4.10668 19.5869L7.73501 13.4856L4.20001 7.34837C4.16501 7.30052 4.15334 7.25267 4.17668 7.22874C4.20001 7.19285 4.24668 7.18089 4.29334 7.18089H6.94168C7.00001 7.18089 7.05834 7.19285 7.10501 7.20481C7.15168 7.22874 7.18668 7.26463 7.22168 7.31248C7.44334 7.82691 7.70001 8.34133 7.96834 8.85576C8.24834 9.37018 8.51668 9.87264 8.80834 10.3751C9.08834 10.8776 9.34501 11.38 9.59001 11.8944H9.61334C9.85834 11.3681 10.115 10.8536 10.3717 10.3512C10.6283 9.84871 10.8967 9.34625 11.165 8.84379C11.4333 8.34133 11.69 7.82691 11.9467 7.33641C11.9583 7.28856 11.9817 7.2407 12.0167 7.21678C12.0633 7.19285 12.11 7.18089 12.1683 7.19285H14.63C14.6883 7.18089 14.7467 7.21678 14.7583 7.27659C14.77 7.28856 14.7467 7.33641 14.7233 7.36034ZM20.1133 19.9817C19.25 19.9936 18.3867 19.8142 17.605 19.4433C16.87 19.0964 16.2633 18.5221 15.8433 17.8163C15.4117 17.0865 15.2017 16.1773 15.2017 15.0887C15.19 14.2034 15.4117 13.3301 15.8433 12.5644C16.2867 11.7868 16.9283 11.1408 17.6983 10.7101C18.515 10.2435 19.495 10.0162 20.65 10.0162C20.7083 10.0162 20.79 10.0162 20.895 10.0282C21 10.0401 21.1167 10.0401 21.2567 10.0521V6.27167C21.2567 6.18793 21.2917 6.14007 21.3733 6.14007H23.7417C23.8 6.12811 23.8467 6.17596 23.8583 6.22382V17.6369C23.8583 17.8522 23.87 18.0915 23.8817 18.3547C23.905 18.6059 23.9167 18.8452 23.9283 19.0485C23.9283 19.1323 23.8933 19.2041 23.8117 19.24C23.205 19.5031 22.5633 19.6946 21.91 19.8142C21.315 19.9219 20.72 19.9817 20.1133 19.9817ZM21.2567 17.589V12.3251C21.1517 12.3012 21.0467 12.2773 20.9417 12.2653C20.8133 12.2533 20.685 12.2414 20.5567 12.2414C20.1017 12.2414 19.6467 12.3371 19.2383 12.5524C18.8417 12.7558 18.5033 13.0549 18.2467 13.4377C17.99 13.8205 17.8617 14.335 17.8617 14.9571C17.85 15.3758 17.92 15.7945 18.06 16.1893C18.1767 16.5123 18.3517 16.7994 18.585 17.0387C18.8067 17.254 19.075 17.4215 19.3783 17.5172C19.6933 17.6249 20.02 17.6728 20.3467 17.6728C20.5217 17.6728 20.685 17.6608 20.8367 17.6488C20.9883 17.6608 21.1167 17.6369 21.2567 17.589Z" fill="#FF61F6"/>
</g>
</g>
<defs>
<clipPath id="clip0_1_157">
<rect width="28" height="28" fill="white"/>
</clipPath>
</defs>
</svg>
