<svg width="20" height="20" viewBox="0 0 20 20" fill="none" xmlns="http://www.w3.org/2000/svg">
<g id="solar:database-linear">
<g id="Group">
<path id="Vector" d="M3.33333 15V5M16.6667 5V15" stroke="#121212" stroke-width="1.5" stroke-linecap="round"/>
<path id="Vector_2" d="M16.6667 10C16.6667 11.8417 13.6817 13.3333 9.99999 13.3333C6.31833 13.3333 3.33333 11.8417 3.33333 10M16.6667 15C16.6667 16.8417 13.6817 18.3333 9.99999 18.3333C6.31833 18.3333 3.33333 16.8417 3.33333 15M9.99999 8.33333C13.6817 8.33333 16.6667 6.84166 16.6667 5C16.6667 3.15833 13.6817 1.66666 9.99999 1.66666C6.31833 1.66666 3.33333 3.15833 3.33333 5C3.33333 6.84166 6.31833 8.33333 9.99999 8.33333Z" stroke="#121212" stroke-width="1.5"/>
</g>
</g>
</svg>
