<svg width="28" height="23" viewBox="0 0 28 23" fill="none" xmlns="http://www.w3.org/2000/svg">
<g id="google-cloud-1 1" clip-path="url(#clip0_1_178)">
<g id="Group">
<path id="Vector" d="M17.7669 6.20513H18.6213L21.0555 3.77096L21.1752 2.73814C16.646 -1.25935 9.732 -0.828612 5.73452 3.70054C4.62306 4.9587 3.81676 6.45512 3.37781 8.07477C3.64892 7.96327 3.94938 7.94567 4.23223 8.02313L9.0994 7.22035C9.0994 7.22035 9.34704 6.81074 9.47497 6.83656C11.6404 4.45873 15.2846 4.18174 17.7845 6.20513H17.7669Z" fill="#EA4335"/>
<path id="Vector_2" d="M24.5225 8.07478C23.9626 6.01501 22.8148 4.16298 21.2174 2.74637L17.8021 6.16172C19.2445 7.34007 20.0661 9.11582 20.0309 10.9784V11.5852C21.7104 11.5852 23.0706 12.9466 23.0706 14.625C23.0706 16.3045 21.7092 17.6648 20.0309 17.6648H13.9501L13.3434 18.2798V21.9263L13.9501 22.5331H20.0309C23.5166 22.5601 26.6092 20.3008 27.6444 16.9723C28.6772 13.6426 27.4097 10.0278 24.5225 8.07478Z" fill="#4285F4"/>
<path id="Vector_3" d="M7.86118 22.4991H13.9419V17.6319H7.86118C7.4281 17.6319 6.99971 17.5392 6.60536 17.3584L5.75094 17.6225L3.30034 20.0567L3.08673 20.9111C4.46109 21.9486 6.13825 22.5061 7.86118 22.4991Z" fill="#34A853"/>
<path id="Vector_4" d="M7.86119 6.70863C4.4834 6.72858 1.49174 8.89164 0.41432 12.0922C-0.6631 15.2928 0.410799 18.8255 3.08792 20.8841L6.61476 17.3572C5.08431 16.666 4.40476 14.8656 5.09605 13.3351C5.78733 11.8047 7.58773 11.1251 9.11818 11.8164C9.79186 12.1216 10.3317 12.6614 10.6369 13.3351L14.1637 9.80827C12.6626 7.84708 10.3306 6.70042 7.86119 6.70863Z" fill="#FBBC05"/>
</g>
</g>
<defs>
<clipPath id="clip0_1_178">
<rect width="28" height="22.5331" fill="white"/>
</clipPath>
</defs>
</svg>
