<svg width="28" height="28" viewBox="0 0 28 28" fill="none" xmlns="http://www.w3.org/2000/svg">
<g id="spotify-2 1" clip-path="url(#clip0_1_148)">
<path id="Vector" d="M14 0C6.26776 0 0 6.26776 0 14C0 21.7322 6.26776 28 14 28C21.7322 28 28 21.7322 28 14C28 6.26871 21.7322 0.000955305 14 0ZM20.4206 20.1913C20.1694 20.604 19.6315 20.733 19.2207 20.4817C15.9335 18.4727 11.7952 18.019 6.92214 19.1319C6.45213 19.2398 5.98403 18.9456 5.87704 18.4756C5.76909 18.0056 6.06237 17.5375 6.53333 17.4305C11.8658 16.2125 16.4408 16.7369 20.1311 18.9915C20.5419 19.2446 20.6728 19.7806 20.4206 20.1913ZM22.1335 16.3806C21.8173 16.8946 21.1447 17.0551 20.6317 16.7398C16.8697 14.427 11.1322 13.7574 6.68141 15.1082C6.1044 15.283 5.49492 14.9572 5.31914 14.3812C5.14527 13.8042 5.47103 13.1956 6.04708 13.0199C11.1312 11.477 17.4525 12.2241 21.7733 14.8798C22.2873 15.196 22.4497 15.8676 22.1335 16.3806ZM22.2806 12.4104C17.7677 9.73074 10.324 9.48427 6.01556 10.7911C5.32392 11.0013 4.59215 10.6106 4.38294 9.91894C4.17373 9.22729 4.56349 8.49553 5.25609 8.28536C10.2017 6.78458 18.4221 7.07404 23.6171 10.1578C24.239 10.5275 24.4434 11.3309 24.0747 11.9518C23.7069 12.5747 22.9015 12.7801 22.2806 12.4104Z" fill="#2EBD59"/>
</g>
<defs>
<clipPath id="clip0_1_148">
<rect width="28" height="28" fill="white"/>
</clipPath>
</defs>
</svg>
