<svg width="28" height="28" viewBox="0 0 28 28" fill="none" xmlns="http://www.w3.org/2000/svg">
<g id="upwork-1 1" clip-path="url(#clip0_1_168)">
<path id="Vector" d="M25.9325 0H2.06864C0.92624 0 0 0.89824 0 2.00592V25.993C0 27.1018 0.92624 28 2.06864 28H25.9325C27.0749 28 28 27.1006 28 25.993V2.00592C28 0.89824 27.0749 0 25.9325 0Z" fill="#6FDA44"/>
<path id="Vector_2" d="M20.5475 16.2814C19.4454 16.2814 18.4139 15.8144 17.4754 15.0539L17.7038 13.981L17.7139 13.9418C17.9178 12.7994 18.5629 10.8808 20.5475 10.8808C22.036 10.8808 23.2467 12.0938 23.2467 13.5834C23.2422 15.0685 22.0315 16.2814 20.5475 16.2814ZM20.5475 8.1424C18.0118 8.1424 16.0462 9.79216 15.2477 12.5048C14.0269 10.6714 13.104 8.47056 12.563 6.61696H9.83472V13.7267C9.83472 15.1278 8.69344 16.2702 7.29344 16.2702C5.89344 16.2702 4.75328 15.1278 4.75328 13.7267V6.61696H2.02384V13.7267C2.01376 16.6387 4.38144 19.0288 7.28896 19.0288C10.1965 19.0288 12.5642 16.6387 12.5642 13.7267V12.5339C13.095 13.6416 13.7446 14.7594 14.5342 15.7539L12.8621 23.6242H15.6565L16.8672 17.9155C17.929 18.5965 19.1498 19.0232 20.5498 19.0232C23.5424 19.0232 25.9784 16.5682 25.9784 13.5722C25.9762 10.5818 23.5402 8.1424 20.5475 8.1424Z" fill="white"/>
</g>
<defs>
<clipPath id="clip0_1_168">
<rect width="28" height="28" fill="white"/>
</clipPath>
</defs>
</svg>
